<?xml version="1.0" encoding="UTF-8" standalone="no"?>
<!-- Created with Inkscape (http://www.inkscape.org/) -->

<svg
   xmlns:dc="http://purl.org/dc/elements/1.1/"
   xmlns:cc="http://creativecommons.org/ns#"
   xmlns:rdf="http://www.w3.org/1999/02/22-rdf-syntax-ns#"
   xmlns:svg="http://www.w3.org/2000/svg"
   xmlns="http://www.w3.org/2000/svg"
   xmlns:sodipodi="http://sodipodi.sourceforge.net/DTD/sodipodi-0.dtd"
   xmlns:inkscape="http://www.inkscape.org/namespaces/inkscape"
   width="210mm"
   height="297mm"
   viewBox="0 0 744.09448819 1052.3622047"
   id="svg2"
   version="1.1"
   inkscape:version="0.91 r13725"
   sodipodi:docname="insidemanlogo.svg">
  <defs
     id="defs4" />
  <sodipodi:namedview
     id="base"
     pagecolor="#ffffff"
     bordercolor="#666666"
     borderopacity="1.0"
     inkscape:pageopacity="0.0"
     inkscape:pageshadow="2"
     inkscape:zoom="0.22627417"
     inkscape:cx="2171.7779"
     inkscape:cy="114.32626"
     inkscape:document-units="px"
     inkscape:current-layer="g5594-9-7"
     showgrid="false"
     inkscape:window-width="1920"
     inkscape:window-height="1147"
     inkscape:window-x="1920"
     inkscape:window-y="0"
     inkscape:window-maximized="1" />
  <metadata
     id="metadata7">
    <rdf:RDF>
      <cc:Work
         rdf:about="">
        <dc:format>image/svg+xml</dc:format>
        <dc:type
           rdf:resource="http://purl.org/dc/dcmitype/StillImage" />
        <dc:title></dc:title>
      </cc:Work>
    </rdf:RDF>
  </metadata>
  <g
     inkscape:label="Layer 1"
     inkscape:groupmode="layer"
     id="layer1">
    <g
       transform="matrix(0.24758739,0,0,0.24758739,-1369.1503,9828.9102)"
       id="g5594-9-7"
       inkscape:export-filename="/home/jonathan/insideman.png"
       inkscape:export-xdpi="96.761902"
       inkscape:export-ydpi="96.761902">
      <rect
         style="color:#000000;clip-rule:nonzero;display:inline;overflow:visible;visibility:visible;opacity:1;isolation:auto;mix-blend-mode:normal;color-interpolation:sRGB;color-interpolation-filters:linearRGB;solid-color:#000000;solid-opacity:1;fill:#ffffff;fill-opacity:1;fill-rule:nonzero;stroke:none;stroke-width:46.31000137;stroke-linecap:butt;stroke-linejoin:miter;stroke-miterlimit:4;stroke-dasharray:none;stroke-dashoffset:0;stroke-opacity:1;color-rendering:auto;image-rendering:auto;shape-rendering:auto;text-rendering:auto;enable-background:accumulate"
         id="rect6550-0-3"
         width="2860.354"
         height="4199.9048"
         x="5579.2446"
         y="-39659.176"
         ry="0"
         inkscape:export-filename="/home/jonathan/insidemanlogoinside.png"
         inkscape:export-xdpi="96.761902"
         inkscape:export-ydpi="96.761902" />
      <g
         id="g4722-3-6"
         transform="matrix(0.83176868,0,0,1.3481208,9810.2621,-45674.94)"
         inkscape:export-filename="/home/jonathan/insidemanlogo.png"
         inkscape:export-xdpi="96.761902"
         inkscape:export-ydpi="96.761902">
        <path
           inkscape:connector-curvature="0"
           id="path4623-6-7"
           d="m -5010.3566,4729.3174 3272.8943,0"
           style="fill:none;fill-rule:evenodd;stroke:#000000;stroke-width:1px;stroke-linecap:butt;stroke-linejoin:miter;stroke-opacity:1" />
        <path
           inkscape:connector-curvature="0"
           id="path4623-8-7-53"
           d="m -5010.3566,4931.348 3272.8943,0"
           style="fill:none;fill-rule:evenodd;stroke:#000000;stroke-width:1px;stroke-linecap:butt;stroke-linejoin:miter;stroke-opacity:1" />
        <path
           inkscape:connector-curvature="0"
           id="path4623-8-4-3-5"
           d="m -5010.3566,5335.4091 3272.8943,0"
           style="fill:none;fill-rule:evenodd;stroke:#000000;stroke-width:1px;stroke-linecap:butt;stroke-linejoin:miter;stroke-opacity:1" />
        <path
           inkscape:connector-curvature="0"
           id="path4623-8-3-2-6"
           d="m -5010.3566,5739.47 3272.8943,0"
           style="fill:none;fill-rule:evenodd;stroke:#000000;stroke-width:1px;stroke-linecap:butt;stroke-linejoin:miter;stroke-opacity:1" />
        <path
           inkscape:connector-curvature="0"
           id="path4623-8-1-2-2"
           d="m -5010.3566,6143.531 3272.8943,0"
           style="fill:none;fill-rule:evenodd;stroke:#000000;stroke-width:1px;stroke-linecap:butt;stroke-linejoin:miter;stroke-opacity:1" />
        <path
           inkscape:connector-curvature="0"
           id="path4623-8-49-1-9"
           d="m -5010.3566,6547.592 3272.8943,0"
           style="fill:none;fill-rule:evenodd;stroke:#000000;stroke-width:1px;stroke-linecap:butt;stroke-linejoin:miter;stroke-opacity:1" />
        <path
           inkscape:connector-curvature="0"
           id="path4623-8-2-5-1"
           d="m -5010.3566,6345.5614 3272.8943,0"
           style="fill:none;fill-rule:evenodd;stroke:#000000;stroke-width:1px;stroke-linecap:butt;stroke-linejoin:miter;stroke-opacity:1" />
        <path
           inkscape:connector-curvature="0"
           id="path4623-8-0-3-2"
           d="m -5010.3566,5941.5009 3272.8943,0"
           style="fill:none;fill-rule:evenodd;stroke:#000000;stroke-width:1px;stroke-linecap:butt;stroke-linejoin:miter;stroke-opacity:1" />
        <path
           inkscape:connector-curvature="0"
           id="path4623-8-6-3-7"
           d="m -5010.3566,5537.4392 3272.8943,0"
           style="fill:none;fill-rule:evenodd;stroke:#000000;stroke-width:1px;stroke-linecap:butt;stroke-linejoin:miter;stroke-opacity:1" />
        <path
           inkscape:connector-curvature="0"
           id="path4623-8-8-8-0"
           d="m -5010.3566,5133.3785 3272.8943,0"
           style="fill:none;fill-rule:evenodd;stroke:#000000;stroke-width:1px;stroke-linecap:butt;stroke-linejoin:miter;stroke-opacity:1" />
        <path
           inkscape:connector-curvature="0"
           id="path4623-8-9-2-9"
           d="m -5010.3566,4527.287 3272.8943,0"
           style="fill:none;fill-rule:evenodd;stroke:#000000;stroke-width:1px;stroke-linecap:butt;stroke-linejoin:miter;stroke-opacity:1" />
      </g>
      <g
         id="g6126-8-3"
         transform="matrix(0.87498229,0,0,0.53984993,9201.7939,-40734.941)"
         inkscape:export-filename="/home/jonathan/insidemanlogo.png"
         inkscape:export-xdpi="96.761902"
         inkscape:export-ydpi="96.761902">
        <path
           inkscape:connector-curvature="0"
           id="path4623-2-5-6"
           d="m -3752.7991,7181.9678 0,-5042.6815"
           style="fill:none;fill-rule:evenodd;stroke:#000000;stroke-width:1.54074073px;stroke-linecap:butt;stroke-linejoin:miter;stroke-opacity:1" />
        <path
           inkscape:connector-curvature="0"
           id="path4623-8-66-8-0"
           d="m -3441.5223,7181.9678 0,-5042.6815"
           style="fill:none;fill-rule:evenodd;stroke:#000000;stroke-width:1.54074073px;stroke-linecap:butt;stroke-linejoin:miter;stroke-opacity:1" />
        <path
           inkscape:connector-curvature="0"
           id="path4623-8-4-4-0-6"
           d="m -2818.9689,7181.9678 0,-5042.6815"
           style="fill:none;fill-rule:evenodd;stroke:#000000;stroke-width:1.54074073px;stroke-linecap:butt;stroke-linejoin:miter;stroke-opacity:1" />
        <path
           inkscape:connector-curvature="0"
           id="path4623-8-3-9-8-2"
           d="m -2196.4158,7181.9678 0,-5042.6815"
           style="fill:none;fill-rule:evenodd;stroke:#000000;stroke-width:1.54074073px;stroke-linecap:butt;stroke-linejoin:miter;stroke-opacity:1" />
        <path
           inkscape:connector-curvature="0"
           id="path4623-8-1-5-6-6"
           d="m -1573.8626,7181.9678 0,-5042.6815"
           style="fill:none;fill-rule:evenodd;stroke:#000000;stroke-width:1.54074073px;stroke-linecap:butt;stroke-linejoin:miter;stroke-opacity:1" />
        <path
           inkscape:connector-curvature="0"
           id="path4623-8-49-0-9-1"
           d="m -951.30935,7181.9678 0,-5042.6815"
           style="fill:none;fill-rule:evenodd;stroke:#000000;stroke-width:1.54074073px;stroke-linecap:butt;stroke-linejoin:miter;stroke-opacity:1" />
        <path
           inkscape:connector-curvature="0"
           id="path4623-8-2-4-33-8"
           d="m -1262.5861,7181.9678 0,-5042.6815"
           style="fill:none;fill-rule:evenodd;stroke:#000000;stroke-width:1.54074073px;stroke-linecap:butt;stroke-linejoin:miter;stroke-opacity:1" />
        <path
           inkscape:connector-curvature="0"
           id="path4623-8-0-8-74-7"
           d="m -1885.1386,7181.9678 0,-5042.6815"
           style="fill:none;fill-rule:evenodd;stroke:#000000;stroke-width:1.54074073px;stroke-linecap:butt;stroke-linejoin:miter;stroke-opacity:1" />
        <path
           inkscape:connector-curvature="0"
           id="path4623-8-6-7-3-9"
           d="m -2507.693,7181.9678 0,-5042.6815"
           style="fill:none;fill-rule:evenodd;stroke:#000000;stroke-width:1.54074073px;stroke-linecap:butt;stroke-linejoin:miter;stroke-opacity:1" />
        <path
           inkscape:connector-curvature="0"
           id="path4623-8-8-1-7-2"
           d="m -3130.2457,7181.9678 0,-5042.6815"
           style="fill:none;fill-rule:evenodd;stroke:#000000;stroke-width:1.54074073px;stroke-linecap:butt;stroke-linejoin:miter;stroke-opacity:1" />
        <path
           inkscape:connector-curvature="0"
           id="path4623-8-9-7-1-0"
           d="m -4064.0756,7181.9678 0,-5042.6815"
           style="fill:none;fill-rule:evenodd;stroke:#000000;stroke-width:1.54074073px;stroke-linecap:butt;stroke-linejoin:miter;stroke-opacity:1" />
      </g>
      <path
         style="fill:none;fill-rule:evenodd;stroke:#d33a3e;stroke-width:25.03342247;stroke-linecap:butt;stroke-linejoin:miter;stroke-miterlimit:4;stroke-dasharray:none;stroke-opacity:1"
         d="m 5646.5951,-39284.218 335.5091,363.017 201.3056,-70.26 369.0601,679.183 123.0197,-117.102 212.4884,339.598 201.3056,-117.105 89.4695,93.683 324.3245,-81.972 290.7752,304.462 156.5706,-46.838 413.7942,538.666"
         id="path4774-3-2"
         inkscape:connector-curvature="0"
         inkscape:export-filename="/home/jonathan/insidemanlogo.png"
         inkscape:export-xdpi="96.761902"
         inkscape:export-ydpi="96.761902" />
      <g
         transform="matrix(-1.0543161,0,0,1.0543161,3527.7792,-48366.517)"
         id="g6053-1-8"
         inkscape:export-filename="/home/jonathan/insidemanlogo.png"
         inkscape:export-xdpi="96.761902"
         inkscape:export-ydpi="96.761902"
         style="opacity:1">
        <rect
           style="color:#000000;clip-rule:nonzero;display:inline;overflow:visible;visibility:visible;opacity:1;isolation:auto;mix-blend-mode:normal;color-interpolation:sRGB;color-interpolation-filters:linearRGB;solid-color:#000000;solid-opacity:1;fill:#ffffff;fill-opacity:1;fill-rule:nonzero;stroke:none;stroke-width:12.5;stroke-linecap:butt;stroke-linejoin:miter;stroke-miterlimit:4;stroke-dasharray:none;stroke-dashoffset:0;stroke-opacity:1;color-rendering:auto;image-rendering:auto;shape-rendering:auto;text-rendering:auto;enable-background:accumulate"
           id="rect5218-8-3-4"
           width="115.15739"
           height="151.52289"
           x="-4132.0293"
           y="8989.4766" />
        <g
           id="g4211-7-0-7-3-8-50-8-5"
           transform="matrix(-1,0,0,1,-5562.8489,8222.9627)">
          <path
             style="fill:#000000;fill-rule:evenodd;stroke:#000000;stroke-width:1px;stroke-linecap:butt;stroke-linejoin:miter;stroke-opacity:1"
             d="m -1688.4722,889.83364 c 9.9756,-44.71104 11.1868,-84.37938 49.8829,-108.19231 29.3597,-12.29873 73.267,-7.74107 92.934,-32.32488 -1.2183,20.87386 -2.0203,41.72777 -2.0203,62.62945 l 38.3858,78.7919 z"
             id="path4158-5-6-6-9-8-6-92-0"
             inkscape:connector-curvature="0"
             sodipodi:nodetypes="cccccc" />
          <path
             style="fill:#000000;fill-rule:evenodd;stroke:#000000;stroke-width:1px;stroke-linecap:butt;stroke-linejoin:miter;stroke-opacity:1"
             d="m -1292.8909,889.83364 c -9.9756,-44.71104 -11.1868,-84.37938 -49.8829,-108.19231 -29.3597,-12.29873 -73.267,-7.74107 -92.934,-32.32488 1.2183,20.87386 2.0203,41.72777 2.0203,62.62945 l -38.3858,78.7919 z"
             id="path4158-6-3-2-5-4-3-4-4-3"
             inkscape:connector-curvature="0"
             sodipodi:nodetypes="cccccc" />
        </g>
        <path
           sodipodi:nodetypes="cccccccccc"
           inkscape:connector-curvature="0"
           id="path4160-6-1-9-1-8-6-5-6"
           d="m -4019.2218,8985.7557 -3.9172,-42.746 c 6.8077,-10.301 8.4573,-20.979 10.451,-32.833 12.3076,6.677 14.6545,-49.622 -1.1368,-31.502 16.6301,-131.671 -139.1321,-127.728 -116.6061,2.384 -14.623,-29.21 -19.167,37.768 0.357,30.901 0.324,10.585 3.408,22.829 6.446,32.852 l -1.047,39.773 48.1458,41.866 z"
           style="fill:#ffffff;fill-rule:evenodd;stroke:#000000;stroke-width:2.48669577;stroke-linecap:butt;stroke-linejoin:miter;stroke-miterlimit:4;stroke-dasharray:none;stroke-opacity:1" />
        <path
           sodipodi:nodetypes="cccccccccccccccccccc"
           inkscape:connector-curvature="0"
           id="path4198-2-8-3-2-9-2-1-1"
           d="m -4008.9201,8874.0397 -4.6429,5.714 -1.4285,13.572 -1.0715,8.571 -3.9285,-14.286 c -1.0702,-16.666 -2.1391,-33.333 -3.2143,-50 l -8.2143,-12.857 -9.6429,-6.428 -1.0714,-1.786 c -9.1399,7.202 -36.4963,1.853 -48.2143,1.071 -10.6452,2.162 -17.1692,5.378 -25.3572,11.786 -7.431,20.699 -7.388,38.536 -9.286,60.357 l -3.214,13.214 -1.428,-18.571 -2.858,-9.286 -2.857,-3.214 c -1.707,-15.872 -0.549,-31.635 0.357,-47.5 12.545,-56.272 103.0141,-59.879 106.0718,-21.786 l 3.2143,-2.143 c 23.8317,9.346 18.1008,53.442 16.7857,73.572 z"
           style="fill:#000000;fill-rule:evenodd;stroke:#000000;stroke-width:1px;stroke-linecap:butt;stroke-linejoin:miter;stroke-opacity:1" />
        <path
           sodipodi:nodetypes="cc"
           inkscape:connector-curvature="0"
           id="path4200-9-7-7-9-6-5-0-0"
           d="m -4020.8284,8938.3847 c -22.1562,55.599 -81.9795,59.009 -104.9645,-1.047"
           style="fill:none;fill-rule:evenodd;stroke:#000000;stroke-width:2.5;stroke-linecap:butt;stroke-linejoin:miter;stroke-miterlimit:4;stroke-dasharray:none;stroke-opacity:1" />
        <path
           inkscape:connector-curvature="0"
           id="path4202-1-9-4-3-4-8-0-6"
           d="m -4056.5743,9013.5537 -33.6195,0 17.4859,44.871 z"
           style="fill:#000000;fill-rule:evenodd;stroke:#000000;stroke-width:0.82673508px;stroke-linecap:butt;stroke-linejoin:miter;stroke-opacity:1" />
        <path
           sodipodi:nodetypes="ccccc"
           inkscape:connector-curvature="0"
           id="path4204-2-2-5-9-3-6-1-3"
           d="m -4067.3712,9031.7897 12.7859,82.506 -36.5817,0 12.5739,-82.674 z"
           style="fill:#000000;fill-rule:evenodd;stroke:#000000;stroke-width:0.83946878px;stroke-linecap:butt;stroke-linejoin:miter;stroke-opacity:1" />
        <path
           sodipodi:nodetypes="ccccccccccccssssccccccsssssccccccccccccccscc"
           inkscape:connector-curvature="0"
           id="path4254-0-2-0-3-28-3-2"
           d="m -4334.8069,9236.7677 c -16.996,39.399 -10.572,64.728 -8.081,107.076 l 56.568,135.36 48.488,62.63 -5.858,-18.656 c -0.378,-52.763 -3.858,-92.245 -10.897,-143.417 l -7.489,-88.445 -2.02,-30.305 c 9.944,-27.77 18.675,-44.557 36.365,-66.67 2.395,44.456 7.058,91.882 14.142,129.3 l -40.406,62.629 c 29.429,268.183 33.036,538.65 44.447,808.1233 6.833,5.013 8.947,7.437 16.197,9.557 4.385,1.281 -13.043,25.831 -15.091,29.735 -20.787,39.624 18.368,41.19 50.472,41.789 20.871,0.39 37.323,-16.829 23.39,-66.289 -3.727,-13.23 24.545,-27.431 28.067,-32.975 -6.258,-51.087 -11.041,-102.334 -16.162,-153.543 19.195,-131.5773 24.935,-259.6553 28.2842,-391.9403 l 22.2234,62.63 c 10.5526,76.814 8.0812,152.999 8.0812,230.315 l -2.0203,252.5383 c 2.5432,10.197 15.3807,18.886 15.3807,18.886 -5.925,25.124 -8.6882,54.134 -6.1774,63.451 4.0719,15.109 33.8263,13.16 33.8263,13.16 9.2863,-1.402 48.3043,3.729 36.4995,-63.874 -0.7237,-4.145 -4.3959,-14.129 -6.484,-18.57 0,0 20.2973,-15.632 25.9498,-23.155 7.8574,-187.1483 11.1218,-374.3783 14.1422,-561.6453 l 12.1218,-10.101 -2.0203,-193.95 -8.0812,-74.751 2.0203,-109.096 6.0609,24.243 6.0609,107.076 c 15.4543,62.398 5.7071,129.789 4.0406,193.95 30.4156,-7.29 52.7745,7.379 76.7716,10.102 l -4.0406,-216.173 -9.0195,-96.628 c -3.7079,-134.197 19.395,-199.51 -106.1379,-250.865 -32.3275,56.053 -22.9815,125.785 -83.5678,122.271 -2.764,-3.868 -31.3736,4.544 -31.3736,4.544 -70.8908,-34.095 -37.8288,-46.071 -58.8048,-86.409 -123.526,-123.618 -168.168,152.708 -185.868,208.092 z"
           style="fill:#000000;fill-rule:evenodd;stroke:#000000;stroke-width:1px;stroke-linecap:butt;stroke-linejoin:miter;stroke-opacity:1" />
        <path
           sodipodi:nodetypes="cccccccccccccccccccc"
           inkscape:connector-curvature="0"
           id="path4292-2-5-8-3-4-3-0"
           d="m -3874.1992,9559.1317 2.8572,24.286 c 2.3389,25.001 -5.591,32.144 -17.1429,54.285 l -35.3309,16.519 c -5.1822,1.121 -4.901,0.41 -6.0976,-4.376 -2.552,-2.497 -2.4458,-3.811 -2.1429,-7.143 l 4.4643,-7.678 12.1428,-7.679 -0.7142,-8.393 6.9642,-3.214 5.3631,-0.199 4.2798,-0.158 c 2.3616,-6.454 3.2917,-11.974 2.3214,-18.571 -3.5206,-3.874 -6.1594,-4.21 -11.0714,-4.643 -10.0579,8.145 -7.4956,16.911 -7.3214,28.928 l -0.5357,7.5 -11.7858,7.5 -2.3214,-14.107 c 0.7205,-24.161 2.3457,-42.87 5.3572,-66.607 21.8118,-3.591 30.3505,-1.541 50.7142,3.75 z"
           style="fill:#000000;fill-rule:evenodd;stroke:#000000;stroke-width:1px;stroke-linecap:butt;stroke-linejoin:miter;stroke-opacity:1" />
        <path
           sodipodi:nodetypes="ccccc"
           inkscape:connector-curvature="0"
           id="path4309-37-4-8-8-7-0-6"
           d="m -4055.6582,9045.7837 -15.3913,-37.968 52.1244,-42.671 1.0609,24.019 z"
           style="fill:#ffffff;fill-rule:evenodd;stroke:#000000;stroke-width:1.5;stroke-linecap:butt;stroke-linejoin:miter;stroke-miterlimit:4;stroke-dasharray:none;stroke-opacity:1" />
        <path
           sodipodi:nodetypes="ccccc"
           inkscape:connector-curvature="0"
           id="path4309-3-5-7-5-6-2-00-1"
           d="m -4089.7244,9045.7837 15.3913,-37.968 -52.1248,-42.671 -1.06,24.019 z"
           style="fill:#ffffff;fill-rule:evenodd;stroke:#000000;stroke-width:1.5;stroke-linecap:butt;stroke-linejoin:miter;stroke-miterlimit:4;stroke-dasharray:none;stroke-opacity:1" />
        <g
           transform="matrix(-1,0,0,1,-6832.9979,7872.5427)"
           style="fill:#000000"
           id="g4358-9-4-0-0-4-2-5">
          <rect
             style="color:#000000;clip-rule:nonzero;display:inline;overflow:visible;visibility:visible;opacity:1;isolation:auto;mix-blend-mode:normal;color-interpolation:sRGB;color-interpolation-filters:linearRGB;solid-color:#000000;solid-opacity:1;fill:#000000;fill-opacity:1;fill-rule:nonzero;stroke:none;stroke-width:1.5;stroke-linecap:butt;stroke-linejoin:miter;stroke-miterlimit:4;stroke-dasharray:none;stroke-dashoffset:0;stroke-opacity:1;color-rendering:auto;image-rendering:auto;shape-rendering:auto;text-rendering:auto;enable-background:accumulate"
             id="rect4341-2-4-9-4-0-2-54"
             width="52.857143"
             height="271.42856"
             x="-2950"
             y="1788.0764"
             ry="0" />
          <rect
             style="color:#000000;clip-rule:nonzero;display:inline;overflow:visible;visibility:visible;opacity:1;isolation:auto;mix-blend-mode:normal;color-interpolation:sRGB;color-interpolation-filters:linearRGB;solid-color:#000000;solid-opacity:1;fill:#000000;fill-opacity:1;fill-rule:nonzero;stroke:none;stroke-width:1.5;stroke-linecap:butt;stroke-linejoin:miter;stroke-miterlimit:4;stroke-dasharray:none;stroke-dashoffset:0;stroke-opacity:1;color-rendering:auto;image-rendering:auto;shape-rendering:auto;text-rendering:auto;enable-background:accumulate"
             id="rect4341-6-2-3-6-8-6-2-7"
             width="14.285715"
             height="62.857128"
             x="-2933.5715"
             y="1743.7908"
             ry="0" />
        </g>
      </g>
      <g
         transform="matrix(-1.0543161,0,0,1.0543161,3947.3852,-48446.889)"
         id="g6071-6-4"
         inkscape:export-filename="/home/jonathan/insidemanlogo.png"
         inkscape:export-xdpi="96.761902"
         inkscape:export-ydpi="96.761902"
         style="opacity:1">
        <rect
           style="color:#000000;clip-rule:nonzero;display:inline;overflow:visible;visibility:visible;opacity:1;isolation:auto;mix-blend-mode:normal;color-interpolation:sRGB;color-interpolation-filters:linearRGB;solid-color:#000000;solid-opacity:1;fill:#ffffff;fill-opacity:1;fill-rule:nonzero;stroke:none;stroke-width:12.5;stroke-linecap:butt;stroke-linejoin:miter;stroke-miterlimit:4;stroke-dasharray:none;stroke-dashoffset:0;stroke-opacity:1;color-rendering:auto;image-rendering:auto;shape-rendering:auto;text-rendering:auto;enable-background:accumulate"
           id="rect5218-2-4-4-4"
           width="115.15739"
           height="151.52289"
           x="2139.3589"
           y="9040.3838"
           transform="scale(-1,1)" />
        <g
           id="g4211-7-0-7-3-8-5-0-3-3"
           transform="translate(-708.539,8273.8707)">
          <path
             style="fill:#000000;fill-rule:evenodd;stroke:#000000;stroke-width:1px;stroke-linecap:butt;stroke-linejoin:miter;stroke-opacity:1"
             d="m -1688.4722,889.83364 c 9.9756,-44.71104 11.1868,-84.37938 49.8829,-108.19231 29.3597,-12.29873 73.267,-7.74107 92.934,-32.32488 -1.2183,20.87386 -2.0203,41.72777 -2.0203,62.62945 l 38.3858,78.7919 z"
             id="path4158-5-6-6-9-8-4-3-7-0"
             inkscape:connector-curvature="0"
             sodipodi:nodetypes="cccccc" />
          <path
             style="fill:#000000;fill-rule:evenodd;stroke:#000000;stroke-width:1px;stroke-linecap:butt;stroke-linejoin:miter;stroke-opacity:1"
             d="m -1292.8909,889.83364 c -9.9756,-44.71104 -11.1868,-84.37938 -49.8829,-108.19231 -29.3597,-12.29873 -73.267,-7.74107 -92.934,-32.32488 1.2183,20.87386 2.0203,41.72777 2.0203,62.62945 l -38.3858,78.7919 z"
             id="path4158-6-3-2-5-4-3-0-9-5-7"
             inkscape:connector-curvature="0"
             sodipodi:nodetypes="cccccc" />
        </g>
        <path
           sodipodi:nodetypes="cccccccccc"
           inkscape:connector-curvature="0"
           id="path4160-6-1-9-1-8-5-1-8-8"
           d="m -2252.1659,9036.6637 3.9172,-42.746 c -6.8077,-10.301 -8.4573,-20.979 -10.451,-32.833 -12.3076,6.677 -14.6545,-49.622 1.1368,-31.502 -16.6301,-131.671 139.1326,-127.728 116.6064,2.384 14.6225,-29.21 19.1666,37.768 -0.3571,30.901 -0.3242,10.585 -3.4085,22.829 -6.446,32.852 l 1.0466,39.773 -48.1456,41.866 z"
           style="fill:#ffffff;fill-rule:evenodd;stroke:#000000;stroke-width:2.48669577;stroke-linecap:butt;stroke-linejoin:miter;stroke-miterlimit:4;stroke-dasharray:none;stroke-opacity:1" />
        <path
           sodipodi:nodetypes="cccccccccccccccccccc"
           inkscape:connector-curvature="0"
           id="path4198-2-8-3-2-9-9-9-1-6"
           d="m -2262.4676,8924.9477 4.6429,5.714 1.4285,13.572 1.0715,8.571 3.9285,-14.286 c 1.0702,-16.666 2.1391,-33.333 3.2143,-50 l 8.2143,-12.857 9.6429,-6.428 1.0714,-1.786 c 9.1399,7.202 36.4963,1.853 48.2143,1.071 10.6455,2.162 17.1689,5.378 25.3571,11.786 7.4315,20.699 7.3882,38.536 9.2857,60.357 l 3.2143,13.214 1.4286,-18.571 2.8571,-9.286 2.8572,-3.214 c 1.7074,-15.872 0.5494,-31.635 -0.3572,-47.5 -12.5443,-56.272 -103.0137,-59.879 -106.0714,-21.786 l -3.2143,-2.143 c -23.8317,9.346 -18.1008,53.442 -16.7857,73.572 z"
           style="fill:#000000;fill-rule:evenodd;stroke:#000000;stroke-width:1px;stroke-linecap:butt;stroke-linejoin:miter;stroke-opacity:1" />
        <path
           sodipodi:nodetypes="cc"
           inkscape:connector-curvature="0"
           id="path4200-9-7-7-9-6-4-6-0-8"
           d="m -2250.5593,8989.2927 c 22.1562,55.599 81.9796,59.009 104.9641,-1.047"
           style="fill:none;fill-rule:evenodd;stroke:#000000;stroke-width:2.5;stroke-linecap:butt;stroke-linejoin:miter;stroke-miterlimit:4;stroke-dasharray:none;stroke-opacity:1" />
        <path
           inkscape:connector-curvature="0"
           id="path4202-1-9-4-3-4-6-9-9-8"
           d="m -2214.8134,9064.4617 33.6195,0 -17.4859,44.871 z"
           style="fill:#000000;fill-rule:evenodd;stroke:#000000;stroke-width:0.82673508px;stroke-linecap:butt;stroke-linejoin:miter;stroke-opacity:1" />
        <path
           sodipodi:nodetypes="ccccc"
           inkscape:connector-curvature="0"
           id="path4204-2-2-5-9-3-9-3-3-4"
           d="m -2204.0165,9082.6977 -12.7859,82.506 36.5817,0 -12.5739,-82.674 z"
           style="fill:#000000;fill-rule:evenodd;stroke:#000000;stroke-width:0.83946878px;stroke-linecap:butt;stroke-linejoin:miter;stroke-opacity:1" />
        <path
           sodipodi:nodetypes="ccccccccccccssssccccccsssssccccccccccccccscc"
           inkscape:connector-curvature="0"
           id="path4254-0-2-0-3-2-3-02-3"
           d="m -1936.5807,9287.6757 c 16.9963,39.399 10.5722,64.728 8.0812,107.076 l -56.5685,135.36 -48.4873,62.63 5.8578,-18.656 c 0.3773,-52.763 3.8579,-92.245 10.8963,-143.417 l 7.4895,-88.445 2.0203,-30.305 c -9.944,-27.77 -18.6756,-44.557 -36.3655,-66.67 -2.3952,44.456 -7.0578,91.882 -14.1421,129.3 l 40.4061,62.629 c -29.4291,268.183 -33.0358,538.65 -44.4467,808.1233 -6.8329,5.013 -8.9469,7.437 -16.1973,9.557 -4.3845,1.281 13.0427,25.831 15.0911,29.735 20.7874,39.624 -18.3682,41.19 -50.4716,41.789 -20.871,0.39 -37.3234,-16.829 -23.3906,-66.289 3.7269,-13.23 -24.5444,-27.431 -28.0672,-32.975 6.2587,-51.087 11.0415,-102.334 16.1625,-153.543 -19.1949,-131.5773 -24.9353,-259.6553 -28.2843,-391.9403 l -22.2234,62.63 c -10.5526,76.814 -8.0812,152.999 -8.0812,230.315 l 2.0203,252.5383 c -2.5432,10.197 -15.3807,18.886 -15.3807,18.886 5.925,25.124 8.6882,54.134 6.1774,63.451 -4.0719,15.109 -33.8263,13.16 -33.8263,13.16 -9.2863,-1.402 -48.3043,3.729 -36.4995,-63.874 0.7237,-4.145 4.3959,-14.129 6.484,-18.57 0,0 -20.2973,-15.632 -25.9498,-23.155 -7.8574,-187.148 -11.1218,-374.3783 -14.1422,-561.6453 l -12.1218,-10.101 2.0203,-193.95 8.0812,-74.751 -2.0203,-109.096 -6.0609,24.243 -6.0609,107.076 c -15.4543,62.398 -5.7071,129.789 -4.0406,193.95 -30.4156,-7.29 -52.7745,7.379 -76.7716,10.102 l 4.0406,-216.173 9.0195,-96.628 c 3.7079,-134.197 -19.395,-199.51 106.1379,-250.865 32.3275,56.053 22.9815,125.785 83.5678,122.271 2.764,-3.868 31.3736,4.544 31.3736,4.544 70.8912,-34.095 37.8291,-46.071 58.8048,-86.409 123.5259,-123.618 168.168,152.708 185.8681,208.092 z"
           style="fill:#000000;fill-rule:evenodd;stroke:#000000;stroke-width:1px;stroke-linecap:butt;stroke-linejoin:miter;stroke-opacity:1" />
        <path
           sodipodi:nodetypes="cccccccccccccccccccc"
           inkscape:connector-curvature="0"
           id="path4292-2-5-8-3-2-8-6-1"
           d="m -2397.1885,9610.0397 -2.8572,24.286 c -2.3389,25.001 5.591,32.144 17.1429,54.285 l 35.3309,16.519 c 5.1822,1.121 4.901,0.41 6.0976,-4.376 2.552,-2.497 2.4458,-3.811 2.1429,-7.143 l -4.4643,-7.678 -12.1428,-7.679 0.7142,-8.393 -6.9642,-3.214 -5.3631,-0.199 -4.2798,-0.158 c -2.3616,-6.454 -3.2917,-11.974 -2.3214,-18.571 3.5206,-3.874 6.1594,-4.21 11.0714,-4.643 10.0579,8.145 7.4956,16.911 7.3214,28.928 l 0.5357,7.5 11.7858,7.5 2.3214,-14.107 c -0.7205,-24.161 -2.3457,-42.87 -5.3572,-66.607 -21.8118,-3.591 -30.3505,-1.541 -50.7142,3.75 z"
           style="fill:#000000;fill-rule:evenodd;stroke:#000000;stroke-width:1px;stroke-linecap:butt;stroke-linejoin:miter;stroke-opacity:1" />
        <path
           sodipodi:nodetypes="ccccc"
           inkscape:connector-curvature="0"
           id="path4309-37-4-8-8-4-0-4-4"
           d="m -2215.7295,9096.6917 15.3913,-37.968 -52.1244,-42.671 -1.0609,24.019 z"
           style="fill:#ffffff;fill-rule:evenodd;stroke:#000000;stroke-width:1.5;stroke-linecap:butt;stroke-linejoin:miter;stroke-miterlimit:4;stroke-dasharray:none;stroke-opacity:1" />
        <path
           sodipodi:nodetypes="ccccc"
           inkscape:connector-curvature="0"
           id="path4309-3-5-7-5-6-7-5-3-9"
           d="m -2181.6633,9096.6917 -15.3913,-37.968 52.1244,-42.671 1.0609,24.019 z"
           style="fill:#ffffff;fill-rule:evenodd;stroke:#000000;stroke-width:1.5;stroke-linecap:butt;stroke-linejoin:miter;stroke-miterlimit:4;stroke-dasharray:none;stroke-opacity:1" />
      </g>
      <text
         xml:space="preserve"
         style="font-style:normal;font-weight:normal;font-size:346.22903442px;line-height:100%;font-family:sans-serif;letter-spacing:0px;word-spacing:0px;fill:#d33a3e;fill-opacity:0.98039216;stroke:none;stroke-width:1px;stroke-linecap:butt;stroke-linejoin:miter;stroke-opacity:1"
         x="5897.8374"
         y="-37124.812"
         id="text6086-8-2"
         sodipodi:linespacing="100%"
         inkscape:export-filename="/home/jonathan/insidemanlogo.png"
         inkscape:export-xdpi="96.761902"
         inkscape:export-ydpi="96.761902"><tspan
           sodipodi:role="line"
           id="tspan6088-6-0"
           x="5897.8374"
           y="-37124.812"
           style="font-style:normal;font-variant:normal;font-weight:500;font-stretch:normal;font-family:Futura-Bold;-inkscape-font-specification:'Futura-Bold Medium'">INSIDE MAN</tspan></text>
      <g
         transform="matrix(1.0543161,0,0,1.0543161,10603.893,-48339.915)"
         id="g6041-4-6-6"
         inkscape:export-filename="/home/jonathan/insidemanlogo.png"
         inkscape:export-xdpi="96.761902"
         inkscape:export-ydpi="96.761902">
        <path
           inkscape:connector-curvature="0"
           id="path4575-8-8-2-7-5-8"
           d="m -3495.0534,8798.9657 -15.1523,16.667 23.2335,41.416 43.4366,56.064 47.9822,68.69 27.2741,-89.398 -7.071,-72.731 -17.1726,-17.678 -27.7792,34.345 -16.6676,2.021 z"
           style="fill:#ffffff;fill-rule:evenodd;stroke:#000000;stroke-width:1px;stroke-linecap:butt;stroke-linejoin:miter;stroke-opacity:1" />
        <path
           inkscape:connector-curvature="0"
           id="path4569-5-9-9-9-69-9"
           d="m -3509.1956,8813.6127 30.3046,52.528 70.7107,92.934 14.1421,6.061 12.1219,-50.508 8.0812,-74.751 -4.0406,-22.224 32.3249,22.224 50.5076,10.101 18.1827,18.183 16.1625,66.67 44.4467,90.914 0,62.629 -30.3046,26.264 -40.4061,0 40.4061,90.914 30.3046,123.239 -32.3249,28.284 -14.1421,14.142 10.1015,230.315 -6.0609,30.304 -2.0203,195.97 12.1218,101.015 16.1624,56.569 4.0406,32.3253 22.2234,32.325 32.3249,20.203 12.1218,16.162 -24.2436,18.183 -26.264,-2.021 -36.3655,-8.081 -28.2843,-22.223 -22.2233,-10.102 -28.2843,-6.061 -12.1218,-28.284 8.0812,-14.142 -7.8519,-2.957 -4.2857,-1.429 -10.7143,-44.2863 -0.7143,-115.714 2.8572,-29.286 -10.7143,-97.857 -20,-103.571 -10.7143,-83.572 -5,-35 -52.8572,99.286 -8.5714,97.143 -22.8571,85.714 -14.2857,68.572 0,97.142 -2.8572,88.5723 0,40 -28.5714,8.571 14.3,16.555 19.1929,43.437 0,20.203 -24.2437,9.091 -34.3452,-4.04 -32.3249,-29.295 -10.1015,-53.538 -9.0914,-12.122 -7.071,-7.071 -2.0203,-67.68 4.0406,-41.4163 9.0914,-170.716 6.0609,-27.274 11.1117,-81.822 11.1116,-76.772 3.0305,-54.548 -1.0102,-125.259 8.0813,-57.579 -29.2945,-12.122 26.264,-232.335 7.0711,-10.101 -5.0508,-10.102 -9.0914,-8.081 -22.2233,-27.274 -14.1422,-63.64 -15.1523,-93.944 -1.0101,-37.376 14.1421,-23.233 54.5483,-8.081 39.3959,-12.122 z"
           style="fill:#000000;fill-rule:evenodd;stroke:#000000;stroke-width:1px;stroke-linecap:butt;stroke-linejoin:miter;stroke-opacity:1" />
        <path
           inkscape:connector-curvature="0"
           id="path4571-6-7-9-8-3-2"
           d="m -3353.127,9004.0267 13.6371,15.152 6.0609,25.759 0,6.061 11.1117,-3.031 -2.0203,-17.677 -10.1016,-25.759 -5.5558,-5.051 -8.5863,-1.01 -3.0305,-0.505 z"
           style="fill:#ffffff;fill-rule:evenodd;stroke:#000000;stroke-width:1px;stroke-linecap:butt;stroke-linejoin:miter;stroke-opacity:1" />
        <path
           inkscape:connector-curvature="0"
           id="path4573-1-7-0-5-7-6"
           d="m -3503.1346,8982.3077 13.637,9.092 2.0203,8.586 8.0812,10.101 6.566,1.516 0.5051,-9.597 -9.0914,-10.606 -13.132,-10.102 z"
           style="fill:#ffffff;fill-rule:evenodd;stroke:#000000;stroke-width:1px;stroke-linecap:butt;stroke-linejoin:miter;stroke-opacity:1" />
        <path
           sodipodi:nodetypes="cccccccccc"
           inkscape:connector-curvature="0"
           id="path4160-7-5-4-8-4-4-6"
           d="m -3492.1732,8810.3697 3.9172,-42.746 c -6.8077,-10.301 -8.4573,-20.979 -10.451,-32.833 -12.3076,6.677 -14.6545,-49.621 1.1368,-31.502 -16.6301,-131.671 139.1326,-127.728 116.6064,2.384 14.6225,-29.21 19.1666,37.768 -0.3571,30.901 -0.3242,10.585 -3.4085,22.829 -6.446,32.853 l 1.0466,39.772 -48.1456,41.866 z"
           style="fill:#ffffff;fill-rule:evenodd;stroke:#000000;stroke-width:2.48669577;stroke-linecap:butt;stroke-linejoin:miter;stroke-miterlimit:4;stroke-dasharray:none;stroke-opacity:1" />
        <path
           sodipodi:nodetypes="cccccccccccccccccccc"
           inkscape:connector-curvature="0"
           id="path4198-8-9-3-1-7-5-4"
           d="m -3502.4749,8698.6537 4.6429,5.714 1.4285,13.572 1.0715,8.571 3.9285,-14.285 c 1.0702,-16.667 2.1391,-33.334 3.2143,-50 l 8.2143,-12.858 9.6429,-6.428 1.0714,-1.786 c 9.1399,7.202 36.4963,1.853 48.2143,1.072 10.6455,2.162 17.1689,5.377 25.3571,11.785 7.4315,20.7 7.3882,38.536 9.2857,60.357 l 3.2143,13.215 1.4286,-18.572 2.8571,-9.285 2.8572,-3.215 c 1.7074,-15.872 0.5494,-31.635 -0.3572,-47.5 -12.5443,-56.272 -103.0137,-59.879 -106.0714,-21.785 l -3.2143,-2.144 c -23.8317,9.347 -18.1008,53.443 -16.7857,73.572 z"
           style="fill:#000000;fill-rule:evenodd;stroke:#000000;stroke-width:1px;stroke-linecap:butt;stroke-linejoin:miter;stroke-opacity:1" />
        <path
           sodipodi:nodetypes="cc"
           inkscape:connector-curvature="0"
           id="path4200-6-8-0-3-8-2-9"
           d="m -3490.5666,8762.9987 c 22.1562,55.599 81.9796,59.009 104.9641,-1.046"
           style="fill:none;fill-rule:evenodd;stroke:#000000;stroke-width:2.5;stroke-linecap:butt;stroke-linejoin:miter;stroke-miterlimit:4;stroke-dasharray:none;stroke-opacity:1" />
        <path
           sodipodi:nodetypes="cccccc"
           inkscape:connector-curvature="0"
           id="path4577-4-3-1-6-5-5"
           d="m -3494.5484,8799.4707 -12.1218,13.637 c 14.5165,25.159 28.7496,37.617 50.0026,56.063 l 24.2436,-29.294 -39.4825,-25.586 z"
           style="fill:#ffffff;fill-rule:evenodd;stroke:#000000;stroke-width:1px;stroke-linecap:butt;stroke-linejoin:miter;stroke-opacity:1" />
        <path
           sodipodi:nodetypes="ccccccc"
           inkscape:connector-curvature="0"
           id="path4579-8-0-1-0-4-0"
           d="m -3425.3529,8838.3617 27.2741,20.203 20.2031,-35.861 0,-8.586 -14.6473,-11.112 -17.1726,19.193 z"
           style="fill:#ffffff;fill-rule:evenodd;stroke:#000000;stroke-width:1px;stroke-linecap:butt;stroke-linejoin:miter;stroke-opacity:1" />
        <path
           sodipodi:nodetypes="ccccccccccc"
           inkscape:connector-curvature="0"
           id="path4581-1-9-0-0-7-4"
           d="m -3431.4138,8839.8767 8.0209,-2.37 7.6364,8.431 -2.0203,29.294 39.396,107.581 -11.1117,34.346 -33.335,-56.064 -5.0508,-63.64 1.0102,-22.223 -14.6473,-23.233 z"
           style="fill:#000000;fill-rule:evenodd;stroke:#000000;stroke-width:1px;stroke-linecap:butt;stroke-linejoin:miter;stroke-opacity:1" />
      </g>
      <text
         xml:space="preserve"
         style="font-style:normal;font-weight:normal;font-size:282.86749268px;line-height:100%;font-family:sans-serif;letter-spacing:0px;word-spacing:0px;fill:#d33a3e;fill-opacity:0.98039216;stroke:none;stroke-width:1px;stroke-linecap:butt;stroke-linejoin:miter;stroke-opacity:1"
         x="5842.1016"
         y="-36512.785"
         id="text6086-8-2-3"
         sodipodi:linespacing="100%"
         inkscape:export-filename="/home/jonathan/insidemanlogo.png"
         inkscape:export-xdpi="96.761902"
         inkscape:export-ydpi="96.761902"><tspan
           sodipodi:role="line"
           id="tspan6088-6-0-6"
           x="5842.1016"
           y="-36512.785"
           style="font-style:normal;font-variant:normal;font-weight:500;font-stretch:normal;font-family:Futura-Bold;-inkscape-font-specification:'Futura-Bold Medium'">GitHub</tspan></text>
      <text
         xml:space="preserve"
         style="font-style:normal;font-weight:normal;font-size:282.86749268px;line-height:100%;font-family:sans-serif;letter-spacing:0px;word-spacing:0px;fill:#d33a3e;fill-opacity:0.98039216;stroke:none;stroke-width:1px;stroke-linecap:butt;stroke-linejoin:miter;stroke-opacity:1"
         x="5854.8311"
         y="-36016.844"
         id="text6086-8-2-3-7"
         sodipodi:linespacing="100%"
         inkscape:export-filename="/home/jonathan/insidemanlogo.png"
         inkscape:export-xdpi="96.761902"
         inkscape:export-ydpi="96.761902"><tspan
           sodipodi:role="line"
           id="tspan6088-6-0-6-5"
           x="5854.8311"
           y="-36016.844"
           style="font-style:normal;font-variant:normal;font-weight:500;font-stretch:normal;font-family:Futura-Bold;-inkscape-font-specification:'Futura-Bold Medium'">YouTube</tspan></text>
      <text
         xml:space="preserve"
         style="font-style:normal;font-weight:normal;font-size:282.86749268px;line-height:100%;font-family:sans-serif;letter-spacing:0px;word-spacing:0px;fill:#d33a3e;fill-opacity:0.98039216;stroke:none;stroke-width:1px;stroke-linecap:butt;stroke-linejoin:miter;stroke-opacity:1"
         x="5882.1172"
         y="-35524.59"
         id="text6086-8-2-3-7-3"
         sodipodi:linespacing="100%"
         inkscape:export-filename="/home/jonathan/insidemanlogo.png"
         inkscape:export-xdpi="96.761902"
         inkscape:export-ydpi="96.761902"><tspan
           sodipodi:role="line"
           id="tspan6088-6-0-6-5-5"
           x="5882.1172"
           y="-35524.59"
           style="font-style:normal;font-variant:normal;font-weight:500;font-stretch:normal;font-family:Futura-Bold;-inkscape-font-specification:'Futura-Bold Medium'">Twitter</tspan></text>
    </g>
    <g
       inkscape:groupmode="layer"
       id="layer2"
       inkscape:label="Layer 2" />
  </g>
</svg>
